ply
format ascii 1.0
comment Created in Blender version 4.0.2
element vertex 72
property float x
property float y
property float z
property float nx
property float ny
property float nz
property uchar red
property uchar green
property uchar blue
property uchar alpha
element face 157
property list uchar uint vertex_indices
end_header
-0.022505283 -0.051794603 -0.0042542983 -0.36959082 -0.8922712 -0.259335 63 91 217 255
0.0010649431 -0.051794603 -0.0042542983 0 -0.96592575 -0.25881916 63 91 217 255
0.0010649431 -0.051794603 0.0057457015 0 -0.9659259 0.25881904 63 91 217 255
-0.022505283 -0.051794603 0.0057457015 -0.3695908 -0.89227116 0.25933516 63 91 217 255
0.02463517 -0.051794603 -0.0042542983 0 -0.9659259 -0.25881904 63 91 217 255
0.02463517 -0.051794603 0.0057457015 0 -0.96592575 0.25881916 63 91 217 255
0.048205394 -0.051794603 -0.0042542983 0.67549694 -0.675497 -0.29564795 63 91 217 255
0.048205394 -0.051794603 0.0057457015 0.675497 -0.67549694 0.29564798 63 91 217 255
0.018916072 0.048205394 -0.0042542983 0.3695908 0.8922712 -0.25933507 63 91 217 255
-0.004654153 0.048205394 -0.0042542983 0 0.965926 -0.25881836 63 91 217 255
-0.004654153 0.048205394 0.0057457015 0 0.9659259 0.25881898 63 91 217 255
0.018916072 0.048205394 0.0057457015 0.36959085 0.8922712 0.2593351 63 91 217 255
-0.028224379 0.048205394 -0.0042542983 5.020801e-09 0.9659259 -0.258819 63 91 217 255
-0.028224379 0.048205394 0.0057457015 0 0.9659259 0.25881904 63 91 217 255
-0.051794603 0.048205394 -0.0042542983 -0.67549694 0.6754969 -0.29564807 63 91 217 255
-0.051794603 0.048205394 0.0057457015 -0.675497 0.6754969 0.29564813 63 91 217 255
0.048205394 -0.004654153 0.0057457015 0.96592575 0 0.2588191 63 91 217 255
0.048205394 -0.004654153 -0.0042542983 0.96592575 0 -0.25881916 63 91 217 255
0.048205394 0.018916072 -0.0042542983 0.8922712 0.36959088 -0.2593351 63 91 217 255
0.048205394 0.018916072 0.0057457015 0.8922712 0.3695908 0.25933504 63 91 217 255
0.048205394 -0.028224379 -0.0042542983 0.9659259 0 -0.25881907 63 91 217 255
0.048205394 -0.028224379 0.0057457015 0.96592575 0 0.25881907 63 91 217 255
-0.051794603 0.02463517 -0.0042542983 -0.9659259 0 -0.25881904 63 91 217 255
-0.051794603 0.02463517 0.0057457015 -0.96592575 0 0.25881907 63 91 217 255
-0.051794603 -0.022505283 -0.0042542983 -0.8922712 -0.36959094 -0.25933504 63 91 217 255
-0.051794603 -0.022505283 0.0057457015 -0.8922712 -0.36959085 0.25933504 63 91 217 255
-0.051794603 0.001064943 0.0057457015 -0.96592575 0 0.2588191 63 91 217 255
-0.051794603 0.001064943 -0.0042542983 -0.9659259 0 -0.258819 63 91 217 255
0.017127989 0.043888576 -0.011731241 0.3245266 0.7834766 -0.52994984 63 91 217 255
0.028679179 0.038442288 -0.0042542983 0.68301266 0.6830125 -0.25881958 63 91 217 255
0.015339907 0.039571766 -0.01920818 0.2731383 0.659414 -0.7004061 63 91 217 255
0.023417193 0.03149448 -0.01920818 0.5 0.50000006 -0.70710677 63 91 217 255
0.043888576 0.017127989 -0.011731241 0.78347653 0.32452667 -0.52994984 63 91 217 255
0.038442288 0.028679179 -0.0042542983 0.68301266 0.68301266 -0.25881916 63 91 217 255
0.039571766 0.015339907 -0.01920818 0.65941393 0.2731383 -0.700406 63 91 217 255
0.03149448 0.023417193 -0.01920818 0.5 0.5 -0.70710677 63 91 217 255
-0.010361862 -0.022477796 -0.03114962 -0.0843229 -0.68620366 -0.7225055 63 91 217 255
-0.018929118 -0.043160975 -0.01920818 -0.27313817 -0.659414 -0.70040613 63 91 217 255
-0.031045048 -0.031045048 -0.01920818 -0.50000006 -0.49999997 -0.70710677 63 91 217 255
-0.022477796 -0.010361862 -0.03114962 -0.56333816 -0.21747757 -0.7970907 63 91 217 255
-0.043160975 -0.018929118 -0.01920818 -0.65941393 -0.27313823 -0.7004062 63 91 217 255
-0.037149943 -0.037149943 -0.0042542983 -0.6830127 -0.6830126 -0.258819 63 91 217 255
-0.037149943 -0.037149943 0.0057457015 -0.6830126 -0.6830126 0.25881904 63 91 217 255
-0.031045048 -0.031045048 0.020699581 -0.5 -0.50000006 0.70710677 63 91 217 255
-0.043160975 -0.018929118 0.020699581 -0.6594139 -0.27313808 0.70040625 63 91 217 255
-0.018929118 -0.043160975 0.020699581 -0.27313814 -0.6594138 0.7004063 63 91 217 255
0.027455837 0.027455837 0.020699581 0.49999994 0.49999994 0.70710677 63 91 217 255
0.019980293 0.0072248527 0.032010723 0.6034288 0.22353421 0.7654452 63 91 217 255
0.039571766 0.015339907 0.020699581 0.659414 0.27313823 0.7004061 63 91 217 255
0.0072248527 0.019980293 0.032010723 0.22454348 0.6066464 0.762601 63 91 217 255
0.015339907 0.039571766 0.020699581 0.2731382 0.6594139 0.70040625 63 91 217 255
0.033560734 0.033560734 0.0057457015 0.6830127 0.6830126 0.2588191 63 91 217 255
-0.023569502 -0.010814062 0.032010723 -0.64189816 -0.21523191 0.7359632 63 91 217 255
-0.010814062 -0.023569502 0.032010723 -0.22577807 -0.7081452 0.6689953 63 91 217 255
0.0067726527 0.018888585 -0.03114962 0.11393822 0.2750713 -0.9546485 63 91 217 255
0.01888858 0.0067726513 -0.031149622 0.20230666 -0.00043984625 -0.97932214 63 91 217 255
-0.043160975 0.039571766 0.020699581 -0.46722385 0.4672238 0.7506023 63 91 217 255
-0.043160975 0.010321325 0.020699581 -0.7071067 0 0.70710677 63 91 217 255
0.039571766 -0.013910536 0.020699581 0.70710677 0 0.70710677 63 91 217 255
0.019980293 -0.023569502 0.032010723 0.40409434 -0.40409428 0.82061905 63 91 217 255
0.039571766 -0.043160975 0.020699581 0.46722394 -0.46722385 0.75060225 63 91 217 255
-0.023569502 0.019980293 0.032010723 -0.40409428 0.40409428 0.82061905 63 91 217 255
-0.013910536 0.039571766 0.020699581 0 0.70710677 0.70710677 63 91 217 255
0.010321325 -0.043160975 0.020699581 0 -0.70710665 0.7071068 63 91 217 255
-0.043160975 0.010321325 -0.01920818 -0.70710677 0 -0.7071067 63 91 217 255
-0.043160975 0.039571766 -0.01920818 -0.46722388 0.46722388 -0.75060225 63 91 217 255
0.01888858 -0.02247779 -0.031149622 -0.038596056 -0.33683848 -0.94077104 63 91 217 255
0.039571766 -0.013910536 -0.01920818 0.70710677 0 -0.70710677 63 91 217 255
0.039571766 -0.043160975 -0.01920818 0.46722394 -0.46722394 -0.7506021 63 91 217 255
-0.022477796 0.018888585 -0.03114962 -0.3649596 0.1857005 -0.91231567 63 91 217 255
0.010321325 -0.043160975 -0.01920818 0 -0.70710677 -0.70710677 63 91 217 255
-0.013910536 0.039571766 -0.01920818 1.4481177e-08 0.70710665 -0.7071068 63 91 217 255
3 0 1 2
3 0 2 3
3 1 4 5
3 1 5 2
3 4 6 7
3 4 7 5
3 8 9 10
3 8 10 11
3 9 12 13
3 9 13 10
3 12 14 15
3 12 15 13
3 16 17 18
3 16 18 19
3 7 6 20
3 7 20 21
3 21 20 17
3 21 17 16
3 22 23 15
3 22 15 14
3 24 25 26
3 24 26 27
3 27 26 23
3 27 23 22
3 28 8 29
3 30 28 31
3 28 32 31
3 33 28 29
3 32 33 18
3 34 35 32
3 32 35 31
3 33 32 28
3 36 37 38
3 39 36 38
3 38 40 39
3 0 41 38
3 0 38 37
3 40 38 41
3 40 41 24
3 25 42 43
3 25 43 44
3 45 43 42
3 45 42 3
3 46 47 48
3 49 46 50
3 47 46 49
3 46 48 19
3 46 19 51
3 51 11 50
3 51 50 46
3 43 52 44
3 53 43 45
3 52 43 53
3 54 30 31
3 35 54 31
3 55 35 34
3 35 55 54
3 56 15 23
3 57 56 23
3 26 25 44
3 26 44 57
3 23 26 57
3 58 59 60
3 58 48 47
3 58 47 59
3 60 7 21
3 58 60 21
3 16 19 48
3 16 48 58
3 21 16 58
3 57 61 56
3 57 44 52
3 57 52 61
3 11 10 62
3 11 62 50
3 56 13 15
3 13 56 62
3 10 13 62
3 45 63 59
3 45 59 53
3 59 63 60
3 3 2 63
3 3 63 45
3 60 5 7
3 5 60 63
3 2 5 63
3 49 61 52
3 53 49 52
3 49 53 47
3 59 47 53
3 50 62 61
3 50 61 49
3 61 62 56
3 24 27 64
3 24 64 40
3 65 22 14
3 22 65 64
3 27 22 64
3 34 67 55
3 66 67 68
3 55 67 66
3 32 18 17
3 32 67 34
3 20 32 17
3 68 20 6
3 20 68 67
3 32 20 67
3 40 64 39
3 69 64 65
3 39 64 69
3 68 6 4
3 70 68 4
3 1 0 37
3 1 37 70
3 4 1 70
3 69 65 71
3 54 69 71
3 71 30 54
3 65 14 12
3 12 71 65
3 71 12 28
3 28 9 8
3 28 30 71
3 9 28 12
3 66 68 70
3 36 66 70
3 37 36 70
3 51 29 8
3 51 8 11
3 19 18 33
3 19 33 51
3 51 33 29
3 41 42 25
3 41 25 24
3 0 3 42
3 0 42 41
3 47 55 49
3 55 53 49
3 53 39 49
3 39 52 49
3 52 69 49
3 69 61 49
3 69 52 61
3 55 39 54
3 36 55 66
3 39 52 69
3 59 66 47
3 66 53 47
3 53 55 47
3 66 53 55
3 53 36 55
3 36 39 55
3 36 53 39
3 53 52 39
3 59 53 66
3 53 36 66
3 39 69 54
